<svg version="1.1" id="Layer_1" xmlns="http://www.w3.org/2000/svg" xmlns:xlink="http://www.w3.org/1999/xlink" x="0px" y="0px"
	 width="100%" viewBox="0 0 1024 1008" enable-background="new 0 0 1024 1008" xml:space="preserve">
<path fill="#000000" opacity="1.000000" stroke="none" 
	d="
M604.773071,327.621307 
	C621.877563,325.498718 638.507385,327.166504 655.108521,328.171661 
	C666.383667,328.854340 677.593689,330.565399 688.845825,331.687195 
	C703.977722,333.195740 713.104858,341.019165 716.162598,355.771790 
	C719.178589,370.322754 724.801331,384.077667 728.812866,398.324219 
	C730.630188,404.778290 735.435974,408.795532 742.124084,409.686584 
	C755.961426,411.530121 769.841125,413.059570 783.708801,414.671448 
	C807.682861,417.458038 831.877563,417.613831 855.825500,420.697174 
	C858.454956,421.035706 861.071533,421.619904 863.633240,422.314392 
	C877.004761,425.939453 884.361023,435.081024 884.032959,448.881775 
	C883.731140,461.576324 884.995239,474.173004 885.457092,486.814636 
	C885.743958,494.665131 889.661926,501.043823 895.353088,506.382416 
	C907.927979,518.178284 917.977234,531.692688 923.625732,548.186584 
	C926.235474,555.807251 928.010437,563.534058 927.437134,571.683350 
	C927.243591,574.434875 926.522644,576.936584 924.988281,579.173828 
	C923.480469,581.372437 921.330017,582.608154 918.622253,582.477600 
	C915.862183,582.344482 915.380737,580.013245 914.609863,577.994934 
	C907.078674,558.275940 895.263428,541.860718 876.991516,530.816956 
	C843.647766,510.663666 802.570862,520.281128 779.898743,553.556641 
	C764.033447,576.841919 759.831482,602.481445 765.696533,629.874390 
	C767.292847,637.330322 767.436646,637.312500 759.947449,637.312439 
	C616.118713,637.311462 472.289856,637.384033 328.461761,637.087219 
	C320.888428,637.071594 317.215973,639.593811 314.229980,646.015991 
	C306.986145,661.595642 294.554688,672.096619 278.125397,675.988586 
	C246.750168,683.421326 228.599960,672.950317 213.258072,646.397766 
	C210.203217,641.110657 207.105759,638.953064 201.184845,639.298035 
	C176.550583,640.733276 151.880814,640.363342 127.220436,640.268372 
	C119.229774,640.237549 111.278648,639.539612 103.348869,638.509155 
	C100.487526,638.137329 99.250366,636.952637 99.371895,633.988770 
	C99.521553,630.338867 99.574173,626.650757 99.219139,623.023132 
	C98.783333,618.570190 100.985748,616.956848 104.943092,616.805969 
	C107.440193,616.710815 109.941322,616.689697 112.440659,616.688904 
	C156.772568,616.674561 201.106979,616.949219 245.435394,616.551941 
	C270.732697,616.325195 296.012726,614.880859 321.151459,611.719360 
	C329.534424,610.665100 336.912140,607.524109 342.446625,600.897156 
	C346.192261,596.412170 351.038544,595.031494 356.669281,595.015869 
	C387.834442,594.929626 418.999847,594.804199 450.164154,594.562561 
	C477.811951,594.348145 505.459167,594.013489 533.104980,593.617310 
	C539.089050,593.531616 545.081482,593.124023 551.043091,592.572449 
	C563.378662,591.431213 571.028625,582.206177 571.631592,567.870361 
	C573.073059,533.601746 574.094421,499.310455 576.000061,465.068085 
	C577.597961,436.356445 575.173157,407.817291 573.966003,379.211731 
	C573.594666,370.413910 573.000977,361.597229 574.675293,352.812836 
	C577.601685,337.459473 588.698730,327.938477 604.773071,327.621307 
M718.804993,438.546997 
	C711.416504,412.448486 703.967712,386.366730 696.705322,360.233154 
	C695.636658,356.387390 693.852600,354.875458 689.755554,354.897095 
	C660.430664,355.052032 631.104370,355.040222 601.779053,354.943817 
	C597.747253,354.930573 596.263916,356.220459 596.247192,360.417450 
	C596.134094,388.736359 596.590454,417.065826 595.317749,445.367828 
	C595.089478,450.443909 596.785950,451.825592 601.832520,451.797272 
	C638.821777,451.589447 675.812805,451.692108 712.803223,451.686829 
	C722.406189,451.685455 723.069031,452.681671 719.828613,442.212128 
	C719.533630,441.258881 719.300659,440.286469 718.804993,438.546997 
z"/>
<path fill="#000000" opacity="1.000000" stroke="none" 
	d="
M301.155457,405.414856 
	C264.401550,406.930298 228.128723,408.445740 191.855621,409.954498 
	C181.870132,410.369873 171.884537,410.784546 161.897705,411.165436 
	C146.255249,411.762054 130.607803,412.245667 114.971207,412.966522 
	C110.878960,413.155182 108.434311,411.977722 107.192383,407.819183 
	C105.814240,403.204498 103.731850,398.804474 102.115288,394.254456 
	C101.472908,392.446320 100.248306,390.630249 101.165596,388.591370 
	C102.735245,387.423706 104.440948,387.761841 106.076416,387.826813 
	C140.524231,389.195251 174.970428,390.604370 209.418976,391.953918 
	C226.889465,392.638367 244.362549,393.263550 261.836914,393.841431 
	C297.970795,395.036377 334.106995,396.359467 370.267975,395.622772 
	C379.655518,395.431549 388.578339,392.805878 395.210876,385.777100 
	C411.300995,368.725677 431.701447,365.033173 453.754791,366.182281 
	C467.715546,366.909729 481.664581,367.863037 495.618378,368.723328 
	C516.217102,369.993225 536.814209,371.290680 557.415466,372.519318 
	C560.040344,372.675873 562.120483,373.276093 562.095459,376.385315 
	C562.069458,379.611389 559.774231,380.107666 557.247253,380.000671 
	C539.115417,379.233398 520.986938,378.380981 502.853271,377.659698 
	C495.530182,377.368408 488.197144,377.305054 480.867676,377.210449 
	C478.858673,377.184479 476.517609,377.189972 476.438385,380.004303 
	C476.366638,382.551971 478.486511,383.396912 480.509735,383.557770 
	C486.816162,384.059326 493.137604,384.408844 499.459137,384.677032 
	C518.259033,385.474640 537.063477,386.166016 555.861206,387.008942 
	C558.364929,387.121246 561.428040,386.707733 562.159058,390.452728 
	C563.046631,394.999847 561.579102,396.942505 556.691406,396.992340 
	C543.359131,397.128296 530.025818,397.181824 516.692810,397.212769 
	C505.860107,397.237885 495.027252,397.177673 484.194458,397.170471 
	C482.863007,397.169586 481.525909,397.202972 480.201355,397.326721 
	C478.396576,397.495331 476.861481,398.289032 476.645081,400.223572 
	C476.424347,402.196930 477.943665,403.086121 479.532440,403.820343 
	C481.742737,404.841766 484.091309,404.718140 486.412964,404.722107 
	C501.246185,404.747437 516.080627,404.628296 530.912354,404.782715 
	C539.721985,404.874390 548.525696,405.442474 557.335327,405.668579 
	C561.140137,405.766205 562.022156,408.066254 562.234070,411.232880 
	C562.469788,414.757324 560.580200,415.971649 557.412903,416.073914 
	C545.592529,416.455719 533.773743,416.889984 521.953125,417.262482 
	C509.468567,417.655975 496.980499,417.947205 484.498718,418.411316 
	C481.832458,418.510468 477.683258,417.880981 477.709473,421.574921 
	C477.735596,425.252899 481.810730,424.682831 484.534088,424.650604 
	C507.858337,424.374878 531.181580,424.017212 554.505310,423.694458 
	C556.004089,423.673706 557.505615,423.703857 559.002991,423.772644 
	C561.331543,423.879639 562.123718,425.377441 562.175415,427.454193 
	C562.226990,429.528015 561.527039,431.071838 559.194946,431.288879 
	C556.210449,431.566650 553.227295,431.922302 550.235352,432.046814 
	C522.783691,433.189331 495.318909,434.073517 467.883270,435.514557 
	C457.889160,436.039490 447.908295,436.462891 437.920654,436.288849 
	C422.838654,436.026031 409.492859,431.298981 399.010864,419.940277 
	C390.280060,410.479218 379.190887,405.970825 366.618622,405.308319 
	C344.966888,404.167358 323.298798,405.528137 301.155457,405.414856 
z"/>
<path fill="#000000" opacity="1.000000" stroke="none" 
	d="
M835.450012,677.968628 
	C807.971741,673.429749 786.829773,650.625305 783.563538,623.373230 
	C781.600586,606.995300 783.425781,591.465088 791.369507,576.974182 
	C802.393005,556.865234 819.273376,544.843140 842.471008,545.207947 
	C865.629517,545.572205 882.686157,557.819519 892.635071,578.426758 
	C906.230713,606.587585 903.689209,633.803772 883.775391,658.316040 
	C871.623535,673.273926 855.175354,679.503601 835.450012,677.968628 
z"/>
<path fill="#000000" opacity="1.000000" stroke="none" 
	d="
M274.115845,379.320618 
	C247.326080,380.891357 221.015701,380.634979 194.731140,379.031281 
	C171.637924,377.622253 148.556915,375.314758 126.100288,369.754272 
	C110.851288,365.978424 101.357330,357.299683 99.309120,341.767761 
	C98.907227,338.720123 99.645760,337.060791 102.825897,336.426086 
	C106.906792,335.611633 110.935768,334.747162 115.144096,334.711975 
	C155.120377,334.378143 195.100052,334.209503 235.070984,333.533539 
	C288.699066,332.626617 342.330536,332.161743 395.960876,331.518585 
	C452.258148,330.843475 508.552643,329.940887 564.854431,329.716461 
	C567.444702,329.706146 570.030579,328.415527 572.977783,329.466156 
	C572.536743,333.741302 570.421387,337.138763 568.648376,340.627563 
	C567.625793,342.639893 565.542908,342.207550 563.737610,342.197632 
	C514.595947,341.927216 465.453888,341.400055 416.312866,341.483490 
	C392.177155,341.524475 368.042450,342.666016 343.909882,343.395630 
	C341.098511,343.480652 338.302002,344.103638 335.501770,344.499695 
	C329.231476,345.386536 325.202576,348.839172 323.575562,354.997955 
	C322.598541,358.696411 321.652374,362.403046 320.694061,366.106445 
	C318.727325,373.706512 315.577515,376.639496 307.971375,377.212616 
	C296.857513,378.050079 285.724060,378.627533 274.115845,379.320618 
z"/>
<path fill="#000000" opacity="1.000000" stroke="none" 
	d="
M494.549683,482.521667 
	C496.292419,481.820404 497.678711,481.251892 499.062347,480.676971 
	C505.501617,478.001526 506.876892,475.865723 506.654663,468.892609 
	C506.437805,462.088074 505.210114,460.464478 498.468048,458.238708 
	C496.378448,457.548798 494.412079,456.778961 493.227753,454.719452 
	C492.029541,452.635742 490.845703,450.530640 492.609253,448.267059 
	C494.236816,446.177979 496.387573,446.081055 498.910706,446.642761 
	C518.224731,450.942902 520.605042,467.106262 516.115967,480.582306 
	C514.506409,485.414185 510.803436,488.682281 506.279358,490.716797 
	C501.278931,492.965546 496.161377,495.042999 490.931915,496.672028 
	C483.524963,498.979309 475.345795,493.311676 474.969604,485.222931 
	C474.490387,474.919861 474.694000,464.576355 474.880768,454.255310 
	C474.953766,450.222382 477.597076,447.587646 481.574371,447.586884 
	C485.821075,447.586029 486.256653,451.085480 486.264557,454.437042 
	C486.282257,461.931641 486.275818,469.426331 486.273499,476.920959 
	C486.270813,485.455200 486.268036,485.455200 494.549683,482.521667 
z"/>
<path fill="#000000" opacity="1.000000" stroke="none" 
	d="
M286.566895,488.628113 
	C280.115845,481.899750 273.928009,475.435455 266.568756,467.747437 
	C266.568756,473.759888 266.346222,478.420593 266.632904,483.049774 
	C266.905884,487.457275 265.750641,491.313660 263.112396,494.687103 
	C260.487976,498.042786 257.544800,497.567078 255.926819,493.648315 
	C255.094849,491.633270 254.909653,489.472870 254.914780,487.285278 
	C254.937729,477.472809 254.915466,467.660278 254.916504,457.847748 
	C254.916595,457.016876 254.859573,456.164856 255.015900,455.358887 
	C255.575027,452.476746 255.414062,448.963470 258.790375,447.773407 
	C262.292297,446.539032 264.673584,448.976074 266.974762,451.274445 
	C269.537048,453.833618 271.688385,456.848022 274.921295,458.841034 
	C276.549774,457.248169 275.860413,455.316833 275.875641,453.617676 
	C275.904144,450.440979 277.415741,448.225739 279.931000,446.614868 
	C283.654327,444.230255 287.028625,445.824402 287.227417,450.277283 
	C287.471985,455.754669 287.516876,461.263153 287.221466,466.735199 
	C286.997925,470.875702 288.036224,474.121735 291.233612,476.874664 
	C294.083710,479.328613 296.046112,482.164368 294.748962,486.473450 
	C293.130676,491.849304 291.528473,492.492889 286.566895,488.628113 
z"/>
<path fill="#000000" opacity="1.000000" stroke="none" 
	d="
M416.082428,559.404602 
	C418.087769,553.594177 417.090057,549.045166 412.555115,545.266846 
	C410.591248,543.630615 409.504547,541.442505 410.126373,538.608582 
	C411.225830,533.597656 413.820129,532.319885 417.769714,535.585876 
	C420.281189,537.662720 421.699402,537.220093 424.110657,535.494385 
	C431.810883,529.983398 442.988495,532.614258 447.257233,541.048767 
	C451.199432,548.838074 452.231689,557.536011 453.741791,566.018250 
	C454.142090,568.266785 453.377594,570.914673 451.429138,572.364990 
	C446.316742,576.170532 440.927124,579.444092 434.062012,577.254150 
	C432.441284,576.737183 430.790649,576.249084 430.535889,574.233826 
	C430.264801,572.089172 431.620239,570.863403 433.266602,569.882385 
	C433.836182,569.542969 434.443085,569.261169 435.048523,568.987610 
	C442.626190,565.562683 442.637177,565.561890 440.798218,557.561279 
	C440.128754,554.648865 439.438446,551.739868 438.682617,548.848938 
	C437.977814,546.153381 436.794983,543.481628 433.605072,543.557800 
	C430.394562,543.634460 429.284149,546.458069 428.774841,549.118774 
	C427.495819,555.800415 426.398926,562.518311 425.324280,569.236938 
	C424.861481,572.130676 423.750366,574.692566 421.728668,576.753784 
	C420.344421,578.165039 418.700806,579.627869 416.472900,578.571960 
	C414.203461,577.496277 413.616638,575.365417 413.919220,573.095093 
	C414.510742,568.656311 415.284882,564.241882 416.082428,559.404602 
z"/>
<path fill="#000000" opacity="1.000000" stroke="none" 
	d="
M279.377747,566.463684 
	C277.098938,557.366272 274.927002,548.658142 272.811371,539.936401 
	C272.419098,538.319275 272.189331,536.626526 272.930267,535.029297 
	C273.940125,532.852478 275.203278,530.874329 277.942169,530.750549 
	C280.873901,530.618103 282.023010,532.672852 282.688751,535.019958 
	C283.640015,538.373779 284.417725,541.776855 285.264771,545.160095 
	C285.662811,546.749878 285.839996,548.449463 287.568268,549.566528 
	C290.824005,548.868042 290.849792,545.828979 291.749878,543.499390 
	C293.181610,539.793762 294.019257,535.743774 298.081024,533.753601 
	C299.621918,532.998718 301.136414,532.375183 302.749481,533.593201 
	C304.286499,534.753662 304.708679,536.417725 304.188202,538.058228 
	C302.431244,543.596069 300.591583,549.113586 298.558289,554.554749 
	C297.701660,556.847229 295.586853,558.275208 293.309418,558.871582 
	C288.414246,560.153687 288.746246,562.734070 291.226959,566.566467 
	C295.190063,565.131775 299.089478,563.784546 302.936401,562.301270 
	C304.972229,561.516235 305.843353,559.657776 306.493073,557.721558 
	C307.657227,554.252319 308.780518,550.769226 309.951050,547.302063 
	C310.830627,544.696655 312.241699,542.469604 314.816803,541.245300 
	C316.405426,540.489929 318.044861,540.412720 319.523224,541.565735 
	C320.990295,542.709961 321.486359,544.199036 320.896820,545.997253 
	C318.980042,551.843933 317.093903,557.700989 315.118439,563.527832 
	C314.520142,565.292664 313.362732,566.803467 311.843262,567.854736 
	C304.753418,572.759949 296.642029,575.216492 288.406006,577.254456 
	C285.207458,578.045898 282.876343,576.425781 281.665985,573.461731 
	C280.791473,571.320068 280.213989,569.057129 279.377747,566.463684 
z"/>
<path fill="#000000" opacity="1.000000" stroke="none" 
	d="
M515.601685,540.803467 
	C518.018555,546.442627 516.983887,552.007874 517.180908,557.465027 
	C517.258850,559.625305 517.288696,561.438416 519.535400,563.020203 
	C523.712769,565.961243 523.057861,571.765625 518.172974,573.794922 
	C509.108551,577.560486 499.815399,580.776306 490.605347,584.188232 
	C489.999054,584.412842 489.279755,584.474670 488.630402,584.416931 
	C485.340210,584.124695 481.154938,584.394226 480.201935,580.580872 
	C479.217987,576.643921 483.266998,575.573059 486.094452,574.393250 
	C491.317993,572.213562 496.598083,570.148926 501.940582,568.282471 
	C505.204010,567.142334 506.639038,565.365295 506.671570,561.717407 
	C506.806915,546.544250 506.945129,546.460205 492.493317,541.900085 
	C488.892609,540.763916 486.142090,539.169495 485.062042,535.350281 
	C484.146332,532.112122 485.958862,529.716309 488.589630,530.210327 
	C497.358856,531.857422 506.213562,533.592468 513.975403,538.444275 
	C514.621399,538.848083 514.945190,539.767334 515.601685,540.803467 
z"/>
<path fill="#000000" opacity="1.000000" stroke="none" 
	d="
M222.789795,545.238525 
	C218.304749,543.797241 214.185181,542.486389 210.044632,541.245605 
	C208.214218,540.696960 206.596924,539.888428 205.818665,538.052856 
	C204.954071,536.013733 202.948929,534.048645 204.934052,531.653625 
	C206.702057,529.520569 208.931152,529.753418 211.323135,530.497681 
	C217.037888,532.276001 222.792496,533.925720 228.522095,535.656921 
	C233.648071,537.205627 236.107468,540.820740 236.275375,546.040710 
	C236.387772,549.534912 236.353577,553.035889 236.302353,556.532654 
	C236.260300,559.403381 236.329727,561.731812 239.507523,563.578247 
	C243.003052,565.609253 242.207169,571.648315 237.959305,573.448425 
	C228.477615,577.466370 218.703674,580.798218 209.017258,584.322937 
	C208.142761,584.641113 207.002808,584.495728 206.049850,584.281799 
	C203.363983,583.678833 199.866608,583.731201 199.517883,580.079651 
	C199.205795,576.811707 202.292099,575.767761 204.682266,574.763855 
	C210.205338,572.444092 215.802567,570.291626 221.425110,568.221802 
	C224.483536,567.095947 225.956894,565.271729 225.749359,561.873413 
	C225.516251,558.056580 225.646545,554.214661 225.696457,550.384644 
	C225.724487,548.233887 225.252914,546.418762 222.789795,545.238525 
z"/>
<path fill="#000000" opacity="1.000000" stroke="none" 
	d="
M170.594452,478.662598 
	C169.605087,466.456543 166.124161,462.111847 154.899643,458.698975 
	C152.036835,457.828491 149.180664,456.909485 146.271317,456.226135 
	C143.175247,455.498932 141.435516,453.550201 140.406158,450.690399 
	C138.818420,446.279327 141.240128,442.981750 145.721527,444.133759 
	C152.958740,445.994171 160.282486,447.854156 167.157593,450.707336 
	C177.132950,454.847198 183.372086,468.371277 181.816147,480.599243 
	C180.343903,492.169250 174.877625,497.717834 163.336319,499.168060 
	C161.721344,499.370972 160.013031,499.130310 158.386398,498.861755 
	C156.540146,498.556946 154.729767,497.877075 154.210678,495.806000 
	C153.697617,493.758911 155.084167,492.358826 156.323410,491.013947 
	C158.097946,489.088074 160.571777,488.423218 162.935776,487.680298 
	C167.255051,486.322906 170.387100,484.031311 170.594452,478.662598 
z"/>
<path fill="#000000" opacity="1.000000" stroke="none" 
	d="
M361.147247,445.206055 
	C363.447662,443.490936 365.507629,443.911591 367.655029,444.569794 
	C373.856262,446.470642 380.098145,448.239441 386.295105,450.153687 
	C394.461761,452.676331 397.910431,456.911377 398.188538,465.323578 
	C398.425079,472.477417 398.277802,479.645203 398.237366,486.806427 
	C398.217651,490.296478 396.625214,493.262512 394.587372,495.925446 
	C392.050903,499.239929 389.157257,498.728149 387.416351,494.852905 
	C386.635559,493.114838 386.683380,491.284058 386.680542,489.455353 
	C386.669373,482.293762 386.537689,475.128662 386.723999,467.971954 
	C386.828217,463.970306 385.173370,461.808075 381.372955,460.775757 
	C376.078644,459.337708 370.821930,457.740509 365.609955,456.026337 
	C360.855865,454.462799 358.975983,450.100464 361.147247,445.206055 
z"/>
<path fill="#000000" opacity="1.000000" stroke="none" 
	d="
M160.593887,567.743530 
	C160.592896,563.785461 160.631302,560.294434 160.584091,556.804565 
	C160.467102,548.158264 158.697845,545.864868 150.300415,543.324341 
	C146.963135,542.314636 143.651505,541.211243 140.286453,540.305481 
	C138.081924,539.712036 136.300171,538.666382 135.165771,536.669373 
	C134.104645,534.801392 132.643433,532.849182 134.090759,530.677856 
	C135.607468,528.402588 138.017288,528.392151 140.376663,529.108643 
	C146.572601,530.990173 152.798706,532.795532 158.910507,534.924866 
	C165.842850,537.340088 169.593903,542.365601 170.455292,549.723083 
	C170.978821,554.194702 171.204376,558.650818 171.140717,563.140442 
	C171.107071,565.512939 170.632416,567.778625 169.561539,569.873657 
	C168.357590,572.229004 167.197357,575.146362 163.925385,574.584106 
	C160.512146,573.997559 160.641296,570.909180 160.593887,567.743530 
z"/>
<path fill="#000000" opacity="1.000000" stroke="none" 
	d="
M150.487701,479.281219 
	C150.481064,488.168976 150.382553,496.668182 150.545288,505.162354 
	C150.613571,508.726501 149.471634,511.706726 147.314896,514.356628 
	C144.727493,517.535583 141.565948,516.989075 140.125031,513.147522 
	C139.783279,512.236450 139.655579,511.195526 139.653702,510.213928 
	C139.627518,496.550964 139.626556,482.887878 139.652191,469.224915 
	C139.659882,465.130219 141.754288,462.171997 145.779999,462.113861 
	C150.389389,462.047333 150.455139,465.899170 150.420334,469.394897 
	C150.388809,472.559570 150.469894,475.725342 150.487701,479.281219 
z"/>
<path fill="#000000" opacity="1.000000" stroke="none" 
	d="
M371.091095,537.036316 
	C373.347839,540.121338 374.289581,543.253479 374.297546,546.672363 
	C374.314178,553.818726 374.295319,560.965088 374.327271,568.111328 
	C374.339478,570.843140 373.614075,573.356750 372.346069,575.745056 
	C371.361206,577.599976 370.052368,579.236023 367.774048,578.971069 
	C365.239288,578.676331 364.103058,576.571594 363.931946,574.368652 
	C363.623871,570.402161 363.724609,566.402893 363.686737,562.416931 
	C363.658295,559.425659 363.480896,556.417786 363.722565,553.445984 
	C364.186798,547.737183 363.615875,543.064636 356.845428,541.120483 
	C353.934052,540.284424 352.075531,537.137085 353.314819,533.848877 
	C354.505859,530.688538 357.489838,531.032898 360.173004,531.758850 
	C364.010040,532.796997 367.962616,533.646118 371.091095,537.036316 
z"/>
<path fill="#000000" opacity="1.000000" stroke="none" 
	d="
M144.327576,566.743164 
	C144.660492,570.755310 143.322495,573.771545 141.093002,576.350586 
	C138.542618,579.300720 135.025391,578.738281 134.419022,574.951843 
	C133.104370,566.742737 133.378723,558.385925 134.284775,550.149780 
	C134.598495,547.298096 137.336014,545.158813 140.494400,545.391479 
	C143.917923,545.643555 144.359467,548.448853 144.335846,551.321899 
	C144.294891,556.306458 144.326477,561.291565 144.327576,566.743164 
z"/>
<path fill="#000000" opacity="1.000000" stroke="none" 
	d="
M638.967896,706.253662 
	C635.755310,709.463257 636.320740,713.568909 635.365723,717.195679 
	C634.818054,719.275635 634.598389,721.440002 634.153137,723.549866 
	C633.916931,724.669312 633.103882,725.262451 631.961304,725.093994 
	C630.721375,724.911133 630.462036,723.916870 630.502441,722.859375 
	C630.534058,722.032532 630.604675,721.188232 630.807800,720.389832 
	C632.318420,714.451050 632.969360,708.503052 629.917480,701.389648 
	C634.377686,703.404114 637.422302,703.395813 640.591431,701.901917 
	C642.259338,701.115723 644.177490,702.244202 645.656555,703.390015 
	C651.023010,707.547546 650.381226,721.399353 644.551453,724.814880 
	C642.050903,726.279907 639.156189,727.673523 636.748352,723.857483 
	C637.366028,723.343628 637.778076,722.745117 638.316711,722.592102 
	C644.395874,720.864990 647.390930,713.003418 643.906433,707.729858 
	C642.801270,706.057373 641.368042,705.078613 638.967896,706.253662 
z"/>
<path fill="#000000" opacity="1.000000" stroke="none" 
	d="
M122.483337,701.936157 
	C126.274376,702.447021 128.698334,704.323486 128.964478,707.646240 
	C129.374359,712.763245 129.173416,717.929199 129.227661,723.074463 
	C129.229385,723.239014 129.250061,723.463379 129.157593,723.560181 
	C125.302834,727.594299 120.468628,724.574524 116.142715,725.308350 
	C113.655327,725.730347 112.590050,724.217529 112.632668,721.724792 
	C112.709335,717.239380 112.949997,712.726929 112.576431,708.271545 
	C112.152473,703.214966 114.033531,701.120911 119.060844,701.813965 
	C120.041557,701.949158 121.052025,701.868469 122.483337,701.936157 
M121.179817,721.859741 
	C122.459351,721.715027 123.912270,722.092712 124.819839,720.772156 
	C126.135902,718.857300 125.687225,708.912170 124.176216,707.176880 
	C122.564980,705.326477 120.417267,705.101685 118.231911,705.664246 
	C116.087776,706.216003 116.369942,708.153503 116.336044,709.777771 
	C116.280594,712.435120 116.424843,715.100342 116.281723,717.751221 
	C116.119476,720.756226 117.411667,722.087219 121.179817,721.859741 
z"/>
<path fill="#000000" opacity="1.000000" stroke="none" 
	d="
M180.746094,719.823486 
	C180.737320,716.521973 180.680298,713.693665 180.736389,710.867493 
	C180.804321,707.444824 179.342850,705.519714 175.780502,705.421143 
	C171.893768,705.313538 172.253311,708.123291 172.221313,710.607239 
	C172.172058,714.431824 172.237961,718.257996 172.170746,722.082092 
	C172.147491,723.405090 172.019852,724.941772 170.202866,724.989441 
	C168.378860,725.037231 168.101883,723.483643 168.089233,722.180847 
	C168.034286,716.529297 168.054764,710.875366 168.188248,705.225525 
	C168.209320,704.334229 168.723068,703.185242 169.398315,702.622620 
	C173.555603,699.158508 183.273529,702.737976 184.424240,708.059021 
	C185.313995,712.173584 185.034637,716.341431 184.981201,720.489441 
	C184.959366,722.184509 185.475891,724.831543 182.994965,724.881897 
	C180.030411,724.942139 181.065659,722.076782 180.746094,719.823486 
z"/>
<path fill="#000000" opacity="1.000000" stroke="none" 
	d="
M383.488739,701.952759 
	C387.533386,702.437073 389.857788,704.503418 390.097992,708.052063 
	C390.421722,712.835022 391.226624,717.938293 389.981506,722.388306 
	C388.291077,728.429810 382.438019,724.408875 378.532349,725.298584 
	C376.339630,725.798035 373.675903,725.679443 373.692902,722.115540 
	C373.719788,716.481445 373.718201,710.847168 373.702148,705.213074 
	C373.695587,702.914185 374.918396,701.909485 377.089020,701.886230 
	C379.076508,701.864868 381.064575,701.900574 383.488739,701.952759 
M385.354492,707.326111 
	C383.579742,705.346191 381.247528,704.901123 378.968994,705.782959 
	C376.543671,706.721680 377.445129,709.194763 377.361694,711.083618 
	C377.251556,713.576843 377.395325,716.080200 377.343781,718.577393 
	C377.286530,721.351685 378.985321,721.946167 381.251923,721.824402 
	C383.493256,721.703979 386.413605,722.329163 386.522247,718.852539 
	C386.635254,715.235718 387.340546,711.521362 385.354492,707.326111 
z"/>
<path fill="#000000" opacity="1.000000" stroke="none" 
	d="
M834.880127,701.798096 
	C839.466797,701.941650 842.922546,703.331543 844.105530,707.687378 
	C845.577637,713.108093 846.244324,718.769836 841.954102,723.184143 
	C838.426941,726.813232 833.777344,725.361450 829.092957,724.974426 
	C829.842590,721.206604 832.350891,721.902405 834.259705,721.864746 
	C837.201416,721.806641 839.809143,720.991516 840.365295,717.916443 
	C841.062500,714.061279 841.875183,709.901306 838.561279,706.669067 
	C837.353882,705.491333 835.531677,704.754700 834.078552,706.177490 
	C832.456909,707.765320 832.138245,709.954529 832.558594,712.187439 
	C832.827515,713.615662 834.820374,714.308167 834.166931,716.454590 
	C830.989563,717.838013 829.474854,715.991089 828.793640,713.181030 
	C827.442627,707.608032 830.120605,702.392212 834.880127,701.798096 
z"/>
<path fill="#000000" opacity="1.000000" stroke="none" 
	d="
M591.860901,703.677368 
	C592.518127,708.265198 591.861511,712.406006 591.110291,716.467346 
	C589.783752,723.638794 581.959290,727.802368 575.238831,725.164429 
	C575.238831,724.855103 575.170654,724.270020 575.248535,724.249939 
	C582.625122,722.342590 579.390381,717.224365 578.638000,712.930786 
	C578.209045,710.482605 577.472900,708.089600 576.982788,705.650146 
	C576.725647,704.370422 576.385498,702.782898 578.177002,702.360352 
	C579.958801,701.940002 580.415833,703.554932 580.769531,704.767212 
	C582.142761,709.474121 582.523865,714.472229 584.905029,719.403198 
	C589.049072,715.316650 587.236511,710.418884 587.900024,706.074341 
	C588.214294,704.016174 587.750000,700.512329 591.860901,703.677368 
z"/>
<path fill="#000000" opacity="1.000000" stroke="none" 
	d="
M276.137329,723.674927 
	C276.816681,722.062927 278.007751,722.087341 279.160187,721.862183 
	C281.400787,721.424438 285.005920,723.151550 285.478577,719.711121 
	C286.051666,715.539612 286.846802,711.052856 284.784393,706.987427 
	C284.084412,705.607483 282.315918,705.473755 280.759583,705.441345 
	C279.174866,705.408447 277.430511,705.943176 275.949463,704.297363 
	C277.133972,700.578430 280.238373,701.989441 282.507690,701.941284 
	C285.437683,701.879089 288.262085,702.708069 289.277435,705.959045 
	C289.813873,707.676697 290.065796,709.529358 290.145142,711.334351 
	C290.338135,715.724915 289.433441,720.253845 293.035461,725.090271 
	C286.702637,724.912415 281.368744,727.009094 276.137329,723.674927 
z"/>
<path fill="#000000" opacity="1.000000" stroke="none" 
	d="
M230.923859,714.076172 
	C231.857071,711.228638 232.661636,708.750000 233.385895,706.518799 
	C231.655304,704.926758 230.085938,705.457886 228.648285,705.416138 
	C223.302780,705.260925 221.518677,702.939819 222.938049,697.917969 
	C223.225723,696.900208 223.568542,695.986755 224.805237,695.946045 
	C226.042557,695.905273 226.783493,696.754822 226.685928,697.794189 
	C226.254868,702.385986 229.406601,701.831299 232.257324,701.886414 
	C238.062714,701.998657 238.805298,702.931702 237.039581,708.380615 
	C235.450104,713.285645 233.653275,718.125061 231.866013,722.963196 
	C231.402145,724.218933 230.617340,725.596924 228.950180,724.930115 
	C227.217606,724.237183 227.903229,722.739136 228.311081,721.509216 
	C229.096603,719.140381 229.962585,716.798279 230.923859,714.076172 
z"/>
<path fill="#000000" opacity="1.000000" stroke="none" 
	d="
M883.281250,704.318970 
	C884.690735,700.130798 888.036377,701.971558 890.497681,701.933228 
	C899.337158,701.795288 901.005981,700.024658 899.467712,711.554749 
	C898.937317,715.530029 899.055664,719.588684 896.046875,722.712952 
	C894.175842,724.655945 892.109741,726.220276 888.287537,723.731445 
	C892.943176,721.027466 895.011963,717.316101 895.510742,712.496643 
	C896.187195,705.960510 895.894714,705.447815 889.224792,705.377258 
	C887.285339,705.356812 885.219727,706.009277 883.281250,704.318970 
z"/>
<path fill="#000000" opacity="1.000000" stroke="none" 
	d="
M534.959229,706.283447 
	C533.514771,711.364136 534.417419,716.200745 534.104309,720.985229 
	C534.001953,722.549744 534.459045,724.828064 532.184937,724.943115 
	C529.459961,725.080994 529.892029,722.598877 529.862976,720.888489 
	C529.778992,715.952393 529.833313,711.013977 529.833313,706.262695 
	C527.091614,704.317627 523.570190,706.695312 521.237305,704.111694 
	C523.235413,701.989136 534.025330,700.846924 535.985596,702.466492 
	C537.931763,704.074280 536.239868,704.961548 534.959229,706.283447 
z"/>
<path fill="#000000" opacity="1.000000" stroke="none" 
	d="
M774.655762,704.968872 
	C774.301819,704.143494 774.012146,703.224304 774.310669,702.953552 
	C778.368713,699.271484 788.326965,702.432312 789.344604,707.750488 
	C790.255249,712.509460 789.975281,717.343994 789.765869,722.149902 
	C789.711243,723.403015 789.606201,725.036743 787.731323,725.006287 
	C785.901733,724.976624 785.790405,723.451477 785.756531,722.127747 
	C785.675964,718.976196 785.709167,715.821960 785.676697,712.669006 
	C785.612183,706.410767 784.713257,705.526306 778.454102,705.421265 
	C777.299500,705.401917 776.146851,705.261169 774.655762,704.968872 
z"/>
<path fill="#000000" opacity="1.000000" stroke="none" 
	d="
M476.389893,721.660339 
	C480.011292,717.102539 479.217834,708.725952 475.113739,705.411743 
	C474.273804,704.733459 473.488251,704.206909 473.854584,703.069397 
	C474.336365,701.573364 475.610199,701.744873 476.739838,702.014954 
	C480.212433,702.844727 482.195160,704.994202 482.250488,708.662231 
	C482.300415,711.970398 482.293823,715.279541 482.290894,718.588257 
	C482.284546,725.767944 479.308228,727.437866 472.430481,724.073059 
	C472.527679,721.611450 474.531250,722.052917 476.389893,721.660339 
z"/>
<path fill="#000000" opacity="1.000000" stroke="none" 
	d="
M887.156006,727.688965 
	C887.091003,729.303162 887.130737,730.476379 886.936890,731.609619 
	C886.753723,732.680176 886.028442,733.370911 884.847046,733.285217 
	C883.654907,733.198914 883.032715,732.374084 883.027527,731.308472 
	C882.997803,725.185974 882.996460,719.062256 883.109619,712.941223 
	C883.131104,711.778870 883.787109,710.594604 885.280823,710.749756 
	C886.733093,710.900696 887.070679,712.125305 887.087280,713.317017 
	C887.152039,717.954346 887.141357,722.592651 887.156006,727.688965 
z"/>
<path fill="#000000" opacity="1.000000" stroke="none" 
	d="
M687.750732,704.533325 
	C688.844421,701.495178 690.516479,701.373718 691.228699,703.957825 
	C693.005066,710.402466 692.229065,717.038330 691.792786,723.605225 
	C691.718628,724.721252 690.652344,725.290588 689.581848,725.003845 
	C687.997437,724.579651 687.875549,723.139832 687.859436,721.802002 
	C687.791931,716.193115 687.765625,710.583801 687.750732,704.533325 
z"/>
<path fill="#000000" opacity="1.000000" stroke="none" 
	d="
M433.366760,705.911987 
	C433.493103,708.968506 433.680359,711.598694 433.662476,714.227539 
	C433.654175,715.441528 433.019379,716.528931 431.582947,716.545593 
	C429.989685,716.564087 429.799011,715.289795 429.768799,714.123718 
	C429.691803,711.153625 429.676514,708.180725 429.707458,705.209717 
	C429.719147,704.087524 429.613647,702.617371 431.129730,702.444885 
	C433.381134,702.188660 433.145264,704.066772 433.366760,705.911987 
z"/>
<path fill="#000000" opacity="1.000000" stroke="none" 
	d="
M777.267395,722.542114 
	C776.775146,725.061035 775.749451,726.094543 773.988403,724.200684 
	C772.694519,722.809143 773.881897,713.327209 775.823120,710.703552 
	C778.338135,714.497742 776.878906,718.466675 777.267395,722.542114 
z"/>
</svg>